<?xml version="1.0" encoding="UTF-8"?>
<svg id="Layer_2" data-name="Layer 2" xmlns="http://www.w3.org/2000/svg" viewBox="0 0 1320.45 1817.6">
  <defs>
    <style>
      .cls-1 {
        fill: #000;
        stroke-width: 0px;
      }
    </style>
  </defs>
  <g id="Layer_1-2" data-name="Layer 1">
    <g>
      <path class="cls-1" d="M394.34,737c73.97,2.19,245.25.39,294.64-.2,5.99-.07,9.76,6.41,6.76,11.6l-187.97,325.5c-1.38,2.39-3.93,3.87-6.7,3.87H7.74c-5.95,0-9.67-6.45-6.7-11.6l190.3-329.53,38.89-67.2,47.25-82.04C424.04,348.11,626.37,146.72,866.21,1.21c8-4.85,16.22,6.01,9.32,12.33-116.32,106.46-368.81,366.55-488.26,713.16-1.7,4.93,1.85,10.15,7.06,10.3Z"/>
      <path class="cls-1" d="M926.11,1080.6c-73.97-2.19-245.25-.39-294.64.2-5.99.07-9.76-6.41-6.76-11.6l187.97-325.5c1.38-2.39,3.93-3.87,6.7-3.87h493.33c5.95,0,9.67,6.45,6.7,11.6l-190.3,329.53-38.89,67.2-47.25,82.04c-146.56,239.28-348.88,440.67-588.73,586.18-8,4.85-16.22-6.01-9.32-12.33,116.32-106.46,368.81-366.55,488.26-713.16,1.7-4.93-1.85-10.15-7.06-10.3Z"/>
    </g>
  </g>
</svg>